<?xml version="1.0" encoding="utf-8"?>
<!-- Generator: Adobe Illustrator 24.0.1, SVG Export Plug-In . SVG Version: 6.00 Build 0)  -->
<svg version="1.0" id="Layer_1" xmlns="http://www.w3.org/2000/svg" xmlns:xlink="http://www.w3.org/1999/xlink" x="0px" y="0px"
	 viewBox="0 0 188 59" style="enable-background:new 0 0 188 59;" xml:space="preserve">
<style type="text/css">
	.st0{fill:#FFFFFF;}
	.st1{fill:#21AAE1;}
</style>
<title>scba-logo</title>
<path class="st0" d="M12.53,21.89h3.88V28h-3.88v20.79H4.47V28H0.5v-6.11h4v-9h8.06L12.53,21.89z"/>
<path class="st0" d="M22.08,21.89l4,16.73h0.09l4.42-16.73h6.78l4.46,16.73H42l4-16.73h8.3L46,48.8h-7.43l-4.51-17.42H34
	l-4.55,17.41H22l-8.24-26.9L22.08,21.89z"/>
<path class="st0" d="M78.92,40.35c-1.136,2.767-3.037,5.154-5.48,6.88c-2.233,1.591-4.909,2.44-7.65,2.43
	c-7.881,0-14.27-6.389-14.27-14.27c0-0.003,0-0.007,0-0.01c0-7.51,5.92-14.45,14.11-14.45s14.21,6.5,14.21,14.7
	c0.006,0.718-0.057,1.435-0.19,2.14H59.48c0.465,3.072,3.199,5.28,6.3,5.09c1.956,0.05,3.803-0.9,4.9-2.52L78.92,40.35z
	 M71.79,32.35c-0.975-3.374-4.501-5.319-7.876-4.344c-2.098,0.606-3.738,2.246-4.344,4.344H71.79z"/>
<path class="st0" d="M80.48,21.89H88v2.85h0.1c0.82-1.31,2.52-3.78,7.32-3.78c2.485,0.019,4.899,0.832,6.89,2.32
	c1.45,1.26,3.1,3.4,3.1,8.69v16.82h-8.06v-14.7c0-1.89,0-5.57-4.22-5.57c-4.61,0-4.61,4-4.61,5.62v14.63h-8L80.48,21.89z"/>
<path class="st0" d="M117.43,21.89h3.88V28h-3.88v20.79h-8.05V28h-4v-6.11h4v-9h8.05V21.89z"/>
<path class="st0" d="M146.07,21.89l-13.46,35.86h-8.54l4.28-10.32l-10-25.54h8.58l5.38,15.61h0.1l5.14-15.61H146.07z"/>
<path class="st1" d="M5.05,56.36c-0.029,0.438,0.302,0.818,0.74,0.85l0,0c0.41,0,0.745-0.33,0.75-0.74v-0.06
	c0-0.53-0.44-0.64-0.76-0.77c-0.37-0.096-0.713-0.277-1-0.53c-0.217-0.244-0.332-0.563-0.32-0.89c0-0.712,0.578-1.29,1.29-1.29
	c0.003,0,0.007,0,0.01,0l0,0c0.7-0.045,1.304,0.485,1.35,1.185c0,0.002,0,0.003,0,0.005c0.005,0.043,0.005,0.087,0,0.13h-0.7
	c0.029-0.35-0.23-0.658-0.58-0.69H5.82c-0.351,0.016-0.63,0.299-0.64,0.65c0,0.45,0.43,0.58,0.64,0.65
	c0.59,0.23,1.45,0.41,1.45,1.55c0.028,0.762-0.567,1.402-1.328,1.43c-0.001,0-0.001,0-0.002,0H5.82
	c-0.784,0.022-1.437-0.595-1.46-1.379c0-0.004,0-0.007,0-0.011v-0.1L5.05,56.36z"/>
<path class="st1" d="M10.44,57.76v-1.93c0-0.27,0-1.1-0.88-1.1c-0.56,0-0.94,0.38-0.94,1.09v1.94H8V53h0.67v1.57l0,0
	c0.23-0.319,0.608-0.496,1-0.47c0.502-0.03,0.983,0.21,1.26,0.63c0.157,0.277,0.233,0.592,0.22,0.91v2.1L10.44,57.76z"/>
<path class="st1" d="M12,57.76v-3.55h0.62v0.32l0,0c0.217-0.273,0.552-0.425,0.9-0.41v0.68c-0.167,0.013-0.33,0.057-0.48,0.13
	c-0.289,0.198-0.44,0.543-0.39,0.89v1.94H12z"/>
<path class="st1" d="M15.64,57.85c-1.027-0.033-1.832-0.892-1.799-1.919s0.892-1.832,1.919-1.799c1.007,0.033,1.805,0.861,1.8,1.868
	C17.527,57.035,16.676,57.856,15.64,57.85z M15.64,54.73c-0.693-0.062-1.305,0.45-1.367,1.143c-0.062,0.693,0.45,1.305,1.143,1.367
	c0.075,0.007,0.15,0.007,0.224,0c0.686,0,1.245-0.554,1.25-1.24l0,0c0.011-0.685-0.535-1.249-1.22-1.26c-0.003,0-0.007,0-0.01,0l0,0
	L15.64,54.73z"/>
<path class="st1" d="M18.25,54.21h0.61v0.55l0,0c0.283-0.414,0.758-0.656,1.26-0.64c1.01-0.028,1.852,0.769,1.88,1.779
	c0,0.007,0,0.014,0,0.021c0.003,0.027,0.003,0.053,0,0.08c0.022,0.983-0.756,1.798-1.739,1.82c-0.004,0-0.007,0-0.011,0l0,0
	c-0.492,0.029-0.965-0.198-1.25-0.6l0,0v1.69h-0.67L18.25,54.21z M20.09,54.71c-0.695-0.027-1.281,0.514-1.309,1.209
	c-0.027,0.695,0.514,1.281,1.209,1.309c0.695,0.027,1.281-0.514,1.309-1.209c0-0.006,0-0.012,0.001-0.019l0,0
	c0.022-0.69-0.519-1.268-1.209-1.29C20.091,54.71,20.09,54.71,20.09,54.71z"/>
<path class="st1" d="M24.08,55.15c0-0.232-0.188-0.42-0.42-0.42c-0.003,0-0.007,0-0.01,0l0,0c-0.203-0.023-0.386,0.124-0.409,0.327
	c0,0.004-0.001,0.009-0.001,0.013l0,0c0,0.3,0.26,0.36,0.56,0.46s1.07,0.31,1.07,1.16c0.017,0.607-0.462,1.113-1.069,1.13
	c0,0-0.001,0-0.001,0h-0.12c-0.67,0.023-1.233-0.5-1.26-1.17V56.6h0.67c0,0.39,0.23,0.64,0.6,0.64
	c0.256,0.023,0.484-0.164,0.51-0.42v-0.06c0-0.32-0.27-0.43-0.62-0.55s-1-0.31-1-1.07c0.038-0.583,0.536-1.029,1.12-1
	c0.551-0.039,1.029,0.377,1.068,0.928c0.002,0.024,0.003,0.048,0.002,0.072h-0.66L24.08,55.15z"/>
<path class="st1" d="M28,57.76v-1.93c0-0.27,0-1.1-0.88-1.1c-0.56,0-0.92,0.38-0.92,1.09v1.94h-0.68V53h0.68v1.57l0,0
	c0.23-0.319,0.608-0.496,1-0.47c0.5-0.02,0.976,0.218,1.26,0.63c0.152,0.279,0.228,0.593,0.22,0.91v2.1L28,57.76z"/>
<path class="st1" d="M30.2,53.8h-0.66V53h0.66V53.8z M30.2,57.8h-0.66v-3.59h0.66V57.8z"/>
<path class="st1" d="M31.09,57.76v-3.55h0.62v0.32l0,0c0.217-0.273,0.552-0.425,0.9-0.41v0.68c-0.167,0.013-0.33,0.057-0.48,0.13
	c-0.289,0.198-0.44,0.543-0.39,0.89v1.94H31.09z"/>
<path class="st1" d="M33.52,56.27c0.1,0.567,0.585,0.985,1.16,1c0.417,0.003,0.801-0.224,1-0.59h0.66
	c-0.255,0.72-0.936,1.201-1.7,1.2c-1.008-0.038-1.802-0.872-1.79-1.88c-0.074-1.002,0.678-1.875,1.68-1.95
	c1.002-0.074,1.875,0.678,1.95,1.68c0.007,0.09,0.007,0.18,0,0.27c0,0.11,0,0.22,0,0.33L33.52,56.27z M35.82,55.76
	c-0.059-0.632-0.62-1.097-1.252-1.038c-0.55,0.051-0.986,0.487-1.038,1.038H35.82z"/>
<path class="st1" d="M42.51,54.23c-0.322-0.409-0.81-0.651-1.33-0.66c-0.983,0.011-1.771,0.817-1.76,1.8c0,0,0,0,0,0l0,0
	c-0.006,0.982,0.768,1.792,1.75,1.83c0.505-0.009,0.98-0.239,1.3-0.63h0.85c-0.647,1.182-2.13,1.616-3.312,0.969
	c-0.798-0.436-1.286-1.28-1.268-2.189c-0.006-1.337,1.073-2.424,2.41-2.43c0.003,0,0.007,0,0.01,0l0,0
	c0.512,0.004,1.011,0.164,1.43,0.46c0.301,0.221,0.548,0.508,0.72,0.84L42.51,54.23z"/>
<path class="st1" d="M46.38,57.76v-1.93c0-0.27,0-1.1-0.88-1.1c-0.56,0-0.94,0.38-0.94,1.09v1.94H43.9V53h0.66v1.57l0,0
	c0.231-0.317,0.608-0.494,1-0.47c0.498-0.02,0.97,0.218,1.25,0.63c0.161,0.275,0.238,0.592,0.22,0.91v2.1L46.38,57.76z"/>
<path class="st1" d="M50.81,57.76v-0.55l0,0c-0.258,0.411-0.715,0.654-1.2,0.64c-1.007,0.034-1.852-0.753-1.89-1.76V56
	c-0.022-1.016,0.783-1.858,1.799-1.88c0,0,0.001,0,0.001,0h0.09c0.473-0.014,0.922,0.207,1.2,0.59l0,0v-0.5h0.66v3.55H50.81z
	 M49.6,54.76c-0.696-0.022-1.277,0.524-1.299,1.22s0.524,1.277,1.22,1.299s1.277-0.524,1.299-1.22c0.001-0.02,0.001-0.039,0-0.059
	l0,0c0.034-0.667-0.48-1.236-1.147-1.27c-0.001,0-0.002,0-0.003,0L49.6,54.76z"/>
<path class="st1" d="M57.07,57.76v-2c0-0.3,0-1.07-0.84-1.07s-0.84,0.76-0.84,1.07v2h-0.66v-2c0.03-0.252-0.019-0.507-0.14-0.73
	c-0.146-0.22-0.397-0.345-0.66-0.33c-0.88,0-0.88,0.79-0.88,1.07v2h-0.67v-3.56H53v0.39l0,0c0.228-0.322,0.606-0.504,1-0.48
	c0.447-0.02,0.869,0.206,1.1,0.59c0.241-0.409,0.698-0.64,1.17-0.59c0.504-0.04,0.987,0.208,1.25,0.64
	c0.141,0.264,0.21,0.561,0.2,0.86v2.14H57.07z"/>
<path class="st1" d="M58.63,57.76V53h0.67v1.69l0,0c0.283-0.382,0.735-0.602,1.21-0.59c1.022,0.005,1.846,0.838,1.841,1.859
	c0,0.014,0,0.027-0.001,0.041c0.022,1.005-0.774,1.838-1.779,1.86c-0.004,0-0.007,0-0.011,0l0,0c-0.483,0.01-0.943-0.208-1.24-0.59
	l0,0v0.51L58.63,57.76z M60.48,57.24c0.695,0.038,1.289-0.495,1.326-1.19c0.038-0.695-0.495-1.289-1.19-1.326
	c-0.695-0.038-1.289,0.495-1.326,1.19c-0.002,0.045-0.002,0.091,0,0.136C59.329,56.69,59.84,57.201,60.48,57.24z"/>
<path class="st1" d="M63.52,56.27c0.104,0.568,0.592,0.986,1.17,1c0.417,0.005,0.803-0.222,1-0.59h0.67
	c-0.258,0.722-0.943,1.202-1.71,1.2c-1.01-0.033-1.807-0.87-1.79-1.88c0-1,0.81-1.81,1.81-1.81c1,0,1.81,0.81,1.81,1.81
	c0.012,0.11,0.012,0.22,0,0.33L63.52,56.27z M65.81,55.76c-0.078-0.625-0.644-1.071-1.27-1c-0.52,0.071-0.929,0.48-1,1H65.81z"/>
<path class="st1" d="M67.17,57.76v-3.55h0.62v0.32l0,0c0.217-0.273,0.552-0.425,0.9-0.41v0.68c-0.167,0.013-0.33,0.057-0.48,0.13
	c-0.289,0.198-0.44,0.543-0.39,0.89v1.94H67.17z"/>
<path class="st0" d="M71,53h1.23c0.705-0.105,1.361,0.381,1.466,1.085c0.011,0.074,0.016,0.149,0.014,0.225
	c0.01,0.349-0.146,0.683-0.42,0.9c0.445,0.218,0.722,0.675,0.71,1.17c0.014,0.757-0.589,1.381-1.345,1.394
	c-0.075,0.001-0.15-0.003-0.225-0.014H71V53z M71.69,55h0.56c0.65,0,0.77-0.39,0.77-0.66c0-0.67-0.65-0.67-0.8-0.67h-0.53L71.69,55z
	 M71.69,57.14h0.75c0.41,0.058,0.789-0.228,0.847-0.638c0.001-0.007,0.002-0.015,0.003-0.022c0.006-0.026,0.006-0.054,0-0.08
	c-0.006-0.171-0.066-0.335-0.17-0.47c-0.193-0.217-0.483-0.323-0.77-0.28h-0.67L71.69,57.14z"/>
<path class="st0" d="M75.38,54.21v1.93c0,0.88,0.39,1.11,0.88,1.11s0.93-0.36,0.93-1.13v-1.91h0.67v3.55h-0.61v-0.38l0,0
	c-0.237,0.31-0.61,0.485-1,0.47c-0.366,0.007-0.722-0.121-1-0.36c-0.359-0.36-0.533-0.865-0.47-1.37v-1.91H75.38z"/>
<path class="st0" d="M80.19,55.15c0-0.232-0.188-0.42-0.42-0.42c-0.007,0-0.014,0-0.02,0l0,0c-0.209-0.023-0.396,0.127-0.42,0.336
	c0,0.001,0,0.003,0,0.004l0,0c0,0.3,0.26,0.36,0.55,0.46s1.07,0.31,1.07,1.16c0.017,0.607-0.462,1.113-1.069,1.13
	c0,0-0.001,0-0.001,0h-0.12c-0.668,0.022-1.228-0.501-1.25-1.169c0,0,0-0.001,0-0.001c-0.01-0.026-0.01-0.054,0-0.08h0.66
	c0,0.39,0.23,0.64,0.61,0.64c0.256,0.017,0.479-0.174,0.5-0.43c0.004-0.016,0.004-0.034,0-0.05c0-0.32-0.28-0.43-0.62-0.55
	s-1-0.31-1-1.07c0.032-0.582,0.528-1.028,1.11-1c0.55-0.05,1.036,0.356,1.086,0.906c0.003,0.031,0.004,0.063,0.004,0.094l0,0
	L80.19,55.15z"/>
<path class="st0" d="M82.28,53.8h-0.67V53h0.67V53.8z M82.28,57.8h-0.67v-3.59h0.67V57.8z"/>
<path class="st0" d="M85.65,57.76v-1.93c0-0.27,0-1.1-0.89-1.1c-0.55,0-0.93,0.38-0.93,1.09v1.94h-0.66v-3.55h0.62v0.38l0,0
	c0.242-0.303,0.612-0.477,1-0.47c0.498-0.02,0.97,0.218,1.25,0.63c0.157,0.277,0.233,0.592,0.22,0.91v2.1H85.65z"/>
<path class="st0" d="M87.65,56.27c0.1,0.57,0.591,0.99,1.17,1c0.417,0.005,0.803-0.222,1-0.59h0.66
	c-0.252,0.722-0.935,1.204-1.7,1.2C87.776,57.837,86.988,57.005,87,56c-0.074-1.002,0.678-1.875,1.68-1.95s1.875,0.678,1.95,1.68
	c0.007,0.09,0.007,0.18,0,0.27c0.012,0.11,0.012,0.22,0,0.33L87.65,56.27z M89.94,55.76c-0.059-0.632-0.62-1.097-1.252-1.038
	c-0.55,0.051-0.986,0.487-1.038,1.038H89.94z"/>
<path class="st0" d="M92.7,55.15c0-0.232-0.188-0.42-0.42-0.42c-0.003,0-0.007,0-0.01,0l0,0c-0.209-0.017-0.393,0.138-0.41,0.348
	c0,0.001,0,0.002,0,0.002l0,0c0,0.3,0.26,0.36,0.55,0.46s1.07,0.31,1.07,1.16c0.017,0.607-0.462,1.113-1.069,1.13
	c0,0-0.001,0-0.001,0h-0.12c-0.667,0.045-1.244-0.459-1.289-1.126C91.001,56.696,91,56.688,91,56.68V56.6h0.67
	c0,0.39,0.22,0.64,0.6,0.64c0.255,0.018,0.479-0.167,0.51-0.42v-0.06c0-0.32-0.28-0.43-0.62-0.55s-1-0.31-1-1.07
	c0.032-0.582,0.528-1.028,1.11-1c0.55-0.05,1.036,0.356,1.086,0.906c0.003,0.031,0.004,0.063,0.004,0.094l0,0L92.7,55.15z"/>
<path class="st0" d="M95.56,55.15c0-0.232-0.188-0.42-0.42-0.42c-0.007,0-0.014,0-0.02,0l0,0c-0.203-0.023-0.386,0.124-0.409,0.327
	c0,0.004-0.001,0.009-0.001,0.013l0,0c0,0.3,0.26,0.36,0.55,0.46s1.07,0.31,1.07,1.16c0.017,0.607-0.462,1.113-1.069,1.13
	c0,0-0.001,0-0.001,0h-0.12c-0.668,0.022-1.228-0.501-1.25-1.169c0,0,0-0.001,0-0.001V56.6h0.66c0,0.39,0.23,0.64,0.6,0.64
	c0.256,0.023,0.484-0.164,0.51-0.42c0.005-0.02,0.005-0.04,0-0.06c0-0.32-0.28-0.43-0.62-0.55s-1-0.31-1-1.07
	c0.032-0.582,0.528-1.028,1.11-1c0.55-0.05,1.036,0.356,1.086,0.906c0.003,0.031,0.004,0.063,0.004,0.094l0,0L95.56,55.15z"/>
<path class="st0" d="M101.79,57.76l-0.52-1.4h-1.71L99,57.76h-0.73l1.82-4.76h0.62l1.79,4.74L101.79,57.76z M101.03,55.76l-0.6-1.81
	l0,0l-0.61,1.81H101.03z"/>
<path class="st0" d="M106.05,57.76h-0.36l-0.77-2.39l0,0l-0.77,2.39h-0.35l-1.33-3.55h0.72l0.78,2.31l0,0l0.71-2.31h0.44l0.74,2.31
	l0,0l0.78-2.31h0.71L106.05,57.76z"/>
<path class="st0" d="M110.65,57.76v-0.55l0,0c-0.257,0.412-0.714,0.656-1.2,0.64c-1.03,0.075-1.926-0.698-2.002-1.728
	c-0.075-1.03,0.698-1.926,1.728-2.002c0.091-0.007,0.182-0.007,0.273,0c0.471-0.016,0.918,0.206,1.19,0.59l0,0v-0.5h0.67v3.55
	H110.65z M109.44,54.76c-0.696-0.016-1.273,0.534-1.289,1.23c-0.016,0.696,0.534,1.273,1.23,1.289
	c0.696,0.016,1.273-0.534,1.289-1.23c0-0.016,0-0.033,0-0.049l0,0c0.034-0.67-0.48-1.242-1.15-1.28h-0.08L109.44,54.76z"/>
<path class="st0" d="M112.22,57.76v-3.55h0.62v0.32l0,0c0.215-0.275,0.551-0.428,0.9-0.41v0.68c-0.167,0.013-0.33,0.057-0.48,0.13
	c-0.289,0.198-0.44,0.543-0.39,0.89v1.94H112.22z"/>
<path class="st0" d="M117.09,57.76v-0.51l0,0c-0.297,0.394-0.767,0.618-1.26,0.6c-1.03-0.075-1.804-0.972-1.728-2.002
	c0.068-0.925,0.803-1.661,1.728-1.728c0.463-0.017,0.909,0.178,1.21,0.53l0,0V53h0.66v4.74L117.09,57.76z M115.86,54.76
	c-0.696-0.016-1.273,0.534-1.289,1.23c-0.016,0.696,0.534,1.273,1.23,1.289c0.696,0.016,1.273-0.534,1.289-1.23
	c0-0.016,0-0.033,0-0.049l0,0c0.041-0.653-0.44-1.222-1.09-1.29h-0.09L115.86,54.76z"/>
<path class="st0" d="M120,55.15c0-0.232-0.188-0.42-0.42-0.42c-0.007,0-0.014,0-0.02,0l0,0c-0.203-0.023-0.386,0.124-0.409,0.327
	c0,0.004-0.001,0.009-0.001,0.013l0,0c0,0.3,0.26,0.36,0.55,0.46s1.07,0.31,1.07,1.16c0.017,0.607-0.462,1.113-1.069,1.13
	c0,0-0.001,0-0.001,0h-0.12c-0.666,0.017-1.223-0.504-1.25-1.17V56.6H119c0,0.39,0.24,0.64,0.61,0.64
	c0.253,0.023,0.476-0.164,0.499-0.417c0-0.004,0.001-0.008,0.001-0.013c0.004-0.016,0.004-0.034,0-0.05c0-0.32-0.28-0.43-0.62-0.55
	s-1-0.31-1-1.07c0.032-0.582,0.528-1.028,1.11-1l0,0c0.55-0.05,1.036,0.356,1.086,0.906c0.003,0.031,0.004,0.063,0.004,0.094l0,0
	L120,55.15z"/>
<path class="st1" d="M22.53,11.24v1.24h1.24c1.06,0,1.92-0.86,1.92-1.92l0,0V9.31h-1.25C23.382,9.321,22.53,10.182,22.53,11.24z"/>
<path class="st1" d="M26.19,0.51c-6.545,0-11.85,5.305-11.85,11.85l0,0v7.69H22c6.545,0.011,11.859-5.285,11.87-11.83
	c0-0.007,0-0.013,0-0.02l0,0V0.5L26.19,0.51z M28,12.17c-0.47,0.469-1.116,0.72-1.78,0.69h-3.69v2.36
	c0.046-0.406,0.391-0.713,0.8-0.71h0.52V15c-0.005,0.438-0.362,0.79-0.8,0.79h-0.52v1.51h-0.36v-1.48h-0.51
	c-0.442,0-0.8-0.358-0.8-0.8V14.5h0.52c0.407,0.002,0.75,0.306,0.8,0.71v-2.35H20.8c-1.182,0-2.14-0.958-2.14-2.14V9.31h1.4
	c1.077-0.01,1.994,0.783,2.14,1.85V5.59c0-0.71-0.21-1.12-0.62-1.19h4.25c0.654-0.057,1.302,0.161,1.79,0.6
	c0.368,0.368,0.57,0.87,0.56,1.39c-0.001,0.471-0.159,0.929-0.45,1.3c-0.272,0.373-0.676,0.627-1.13,0.71
	c0.567,0.045,1.093,0.315,1.46,0.75c0.36,0.412,0.552,0.943,0.54,1.49C28.62,11.211,28.403,11.765,28,12.17z"/>
<path class="st1" d="M162.28,50.07v7.67h-29.73l2.61-6.74c4.49-3,9.46-5.22,12.85-9c1.11-1.26,4.92-5.5,4.92-9.12
	c0.117-1.797-1.244-3.348-3.041-3.466c-0.113-0.007-0.226-0.009-0.339-0.004c-3.57,0-4,3.57-4.1,5.64h-8.69
	c-0.101-2.881,0.635-5.729,2.12-8.2c3-4.73,8.39-5.45,11-5.45c8,0,12.16,5.3,12.16,10.37c0,7.57-6.23,13.36-11.87,18.33
	L162.28,50.07z"/>
<path class="st1" d="M160.87,34.62c0-10.32,8.35-13.55,13.46-13.55c4.58,0,13.17,3,13.17,13.55v9.94c0,9.94-7.57,13.56-13.17,13.56
	c-5.26,0-13.46-3.48-13.46-13.56V34.62z M170,44.8c0,2.14,0.67,5.31,4.19,5.31c4.2,0,4.2-4.25,4.2-5.31V34.37c0-1.11,0-5.3-4.2-5.3
	c-3.6,0-4.19,3.38-4.19,5.3V44.8z"/>
</svg>
