<svg xmlns="http://www.w3.org/2000/svg" viewbox="0 0 272 64" width="272" height="64"><path d="M74.447 4.792L63.053 20.435l5.133 6.816L79.5 11.6l-5.05-6.805zm11.907.017l-11.4 15.643 5.118 6.8L91.388 11.6l-5.034-6.788zm6.079 7.987l-5.739 7.884 4.979 6.571 5.656-7.851-4.9-6.6zm-32.907 4.6c0-9.608 9.27-17.4 20.706-17.4s20.707 7.788 20.707 17.4-9.271 17.4-20.707 17.4-20.706-7.788-20.706-17.4zM9.773 5.91L19 31.173a5.37 5.37 0 0 1 .327 1.31 4.647 4.647 0 0 1-.272.983h9.284a2.185 2.185 0 0 1-.382-1.147 3.88 3.88 0 0 1 .273-1.091L37.624 6.62v21.17c0 2.62-.383 4.147-2.458 5.676H47.84c-1.966-1.365-2.458-2.947-2.458-5.676V6.674c0-3 .765-4.8 2.731-5.675h-16.33a2.67 2.67 0 0 1 .437 1.255 4.368 4.368 0 0 1-.273 1.092L23.864 26.7 15.945 3.565a5.8 5.8 0 0 1-.328-1.419A2.182 2.182 0 0 1 16 1H0c1.912.819 2.786 2.674 2.786 5.675V27.79c0 3-.874 4.856-2.786 5.676h12.562c-1.912-.82-2.785-2.674-2.785-5.676V5.91zm114.969 21.88v-6.656h3.768a9.656 9.656 0 0 1 7.975 3.819c2.238 2.728 3.277 4.965 3.277 6.6a2.633 2.633 0 0 1-.984 1.911h13.928c-3.059-2.074-4.533-5.239-6.555-8.349-1.474-2.292-2.894-4.147-5.679-5.4 5.734-1.091 8.847-4.529 8.847-9.112a8.861 8.861 0 0 0-6.172-8.839c-2.4-.765-5.734-.765-9.939-.765h-19.171c1.912.874 2.731 2.62 2.731 5.566V27.79c0 3-.764 4.8-2.731 5.676h13.49c-1.911-.82-2.785-2.674-2.785-5.676zm0-12.222v-9h8.684c5.188 0 7.373.982 7.373 4.474s-2.185 4.529-7.373 4.529h-8.684zm50.235 12.222v-6.656h3.773a9.655 9.655 0 0 1 7.97 3.819c2.24 2.728 3.28 4.965 3.28 6.6a2.624 2.624 0 0 1-.99 1.911h13.93c-3.06-2.074-4.53-5.239-6.55-8.349-1.48-2.292-2.9-4.147-5.68-5.4 5.73-1.091 8.84-4.529 8.84-9.112a8.859 8.859 0 0 0-6.17-8.839c-2.4-.765-5.73-.765-9.94-.765h-19.168c1.911.874 2.731 2.62 2.731 5.566V27.79c0 3-.765 4.8-2.731 5.676h13.488c-1.91-.82-2.783-2.674-2.783-5.676zm0-12.222v-9h8.683c5.19 0 7.37.982 7.37 4.474s-2.18 4.529-7.37 4.529h-8.683zM228 1h-13.49c1.96.874 2.73 2.674 2.73 5.675V27.79c0 3-.77 4.8-2.73 5.676H228c-1.97-.874-2.79-2.674-2.79-5.676V6.674c0-3 .82-4.8 2.79-5.675zm13.09 23.627l2.02 9.166a4.359 4.359 0 0 1 1.64-.326c2.02 0 5.68.763 10.59.763 10.82 0 16.66-4.092 16.66-11.077 0-5.619-3.88-8.293-11.63-9.712-6.89-1.255-10.65-.927-10.65-4.092 0-2.128 2.07-3.274 6.06-3.274a23.209 23.209 0 0 1 12.51 3.164L270.31 1a3.206 3.206 0 0 1-1.37.274c-2.51 0-6.94-1.037-12.89-1.037-9.28 0-14.74 4.365-14.74 10.2 0 5.074 3.93 7.967 11.9 9.058 6.45.873 10.27 1.091 10.27 4.529q0 4.256-8.19 4.255a31.363 31.363 0 0 1-14.2-3.655zM107.473 48.242a4.034 4.034 0 0 1-.782.1 49.975 49.975 0 0 0-5.344-.6c-5.893 0-9.334 3.282-9.334 8.335 0 4.975 3.259 7.918 8.994 7.918 2.66 0 4.511-.651 5.554-.651a1.8 1.8 0 0 1 .626.13v-2.63a16.266 16.266 0 0 1-6.571 1.432c-3.78 0-6.283-2.474-6.283-6.355 0-3.985 2.633-6.512 6.987-6.512a13.476 13.476 0 0 1 5.371 1.173l.782-2.345zm13.87-.13a1.417 1.417 0 0 1 .156.416 1.286 1.286 0 0 1-.209.574l-6.413 12.059a9.271 9.271 0 0 1-1.8 2.449h4.171a1.39 1.39 0 0 1-.547-1.2 2.424 2.424 0 0 1 .287-1.068l.7-1.355h10.951l.782 1.433a2.1 2.1 0 0 1 .261 1.016 1.372 1.372 0 0 1-.548 1.172h4.2a8.808 8.808 0 0 1-1.773-2.449l-6.492-12.189a.892.892 0 0 1-.13-.444.959.959 0 0 1 .13-.416h-3.728zm1.773 1.433l4.719 8.777h-9.308l4.589-8.777zm15.961-1.433c.887.625 1.1 1.485 1.1 2.839v9.794c0 1.355-.182 2.188-1.1 2.865h4.328c-.887-.651-1.1-1.51-1.1-2.865v-3.7h4.145a5.8 5.8 0 0 1 5.371 2.841 6.059 6.059 0 0 1 1.408 2.968 1.087 1.087 0 0 1-.313.756h4.12c-.991-.781-1.617-2.135-2.606-3.647a7.711 7.711 0 0 0-3.495-3.307c3.024-.47 4.563-1.954 4.563-4.247 0-3.359-2.373-4.3-7.013-4.3h-9.413zm3.233 1.615h6.258c3.076 0 4.641.5 4.641 2.839 0 2.084-1.539 2.865-4.85 2.865h-6.049v-5.7zm21.251-1.615c.886.625 1.095 1.485 1.095 2.839v9.819c0 1.355-.182 2.189-1.095 2.84h15.849a2.536 2.536 0 0 1-.15-.73 18.352 18.352 0 0 1 .7-1.979c-1.09.651-3.21 1.094-6.178 1.094h-6.988v-5.783h7.77a1.432 1.432 0 0 0 1.486-.651l.73-1.249a5.021 5.021 0 0 1-2.034.338h-7.952v-4.923h6.936c2.58 0 4.46.156 5.76.911-.23-1.016-.55-1.615-.55-1.875a3.011 3.011 0 0 1 .13-.651h-15.509z" fill="#ffffff" fill-rule="evenodd"/></svg>