<?xml version="1.0" encoding="utf-8"?>
<!-- Generator: Adobe Illustrator 24.0.1, SVG Export Plug-In . SVG Version: 6.00 Build 0)  -->
<svg version="1.1" id="Layer_1" xmlns="http://www.w3.org/2000/svg" xmlns:xlink="http://www.w3.org/1999/xlink" x="0px" y="0px"
	 viewBox="0 0 562 288" style="enable-background:new 0 0 562 288;" xml:space="preserve">
<style type="text/css">
	.st0{fill:#FFFFFF;}
</style>
<g>
	<g>
		<g>
			<g>
				<path class="st0" d="M44.3,139.5c-1.5-5.8-4-8.3-7.8-7.8c-4.8,0.6-6.6,5.1-5.3,15.7l0.8,6.2c1.3,10.4,4.1,14.5,9,13.9
					c4-0.5,5.6-3.4,5.7-9.5l7.8-1c-0.1,11.1-4.5,16.6-12.6,17.6c-9.1,1.1-16.1-4.7-18-20l-0.8-6.2c-1.9-15.3,3.6-22.7,12.7-23.8
					c7.8-1,13.9,3.5,16.5,14L44.3,139.5z"/>
			</g>
			<g>
				<path class="st0" d="M59.1,150.2l-0.8-6.2c-1.9-15.3,3.6-22.7,12.7-23.8c9-1.1,16.1,4.7,18,20l0.8,6.2
					c1.9,15.3-3.6,22.7-12.7,23.8C68.1,171.4,61,165.6,59.1,150.2z M66.5,143l0.8,6.2c1.3,10.5,4.2,14.6,9,14
					c4.8-0.6,6.6-5.2,5.3-15.7l-0.8-6.2c-1.3-10.5-4.2-14.6-9-14C67,127.9,65.2,132.5,66.5,143z"/>
			</g>
			<g>
				<path class="st0" d="M124.7,114.3l6,48.8l-7.4,0.9l-17.8-27.2l3.6,28.9l-8.2,1l-6-48.8l7.3-0.9l18,27.6l-3.6-29.3L124.7,114.3z"
					/>
			</g>
			<g>
				<path class="st0" d="M159.6,110l0.9,7.1l-16.6,2l1.7,14l14.8-1.8l0.9,7.1l-14.8,1.8l2.5,20.6l-8.2,1l-6-48.8L159.6,110z"/>
			</g>
			<g>
				<path class="st0" d="M191.6,106l0.9,7.1l-16.6,2l1.6,12.9l14.8-1.8l0.9,7.1l-14.8,1.8l1.8,14.6l16.6-2l0.9,7.1l-24.8,3l-6-48.8
					L191.6,106z"/>
			</g>
			<g>
				<path class="st0" d="M226.7,151.2l-9.6-18.9l-6.2,0.8l2.4,19.8l-8.2,1l-6-48.8l14.2-1.7c9.2-1.1,15.5,3,16.7,12.7
					c0.8,6.7-1.2,11.3-5.3,13.9l10.9,20.2L226.7,151.2z M215.3,125.4c4.9-0.6,7.3-2.8,6.6-8.3c-0.7-5.5-3.5-7.2-8.4-6.6l-5.2,0.6
					L210,126L215.3,125.4z"/>
			</g>
			<g>
				<path class="st0" d="M261.4,97.5l0.9,7.1l-16.6,2l1.6,12.9l14.8-1.8l0.9,7.1l-14.8,1.8l1.8,14.6l16.6-2l0.9,7.1l-24.8,3l-6-48.8
					L261.4,97.5z"/>
			</g>
			<g>
				<path class="st0" d="M298.9,92.9l6,48.8l-7.4,0.9l-17.8-27.2l3.6,28.9l-8.2,1l-6-48.8l7.3-0.9l18,27.6l-3.6-29.3L298.9,92.9z"/>
			</g>
			<g>
				<path class="st0" d="M331.3,104.2c-1.5-5.8-4-8.3-7.8-7.8c-4.8,0.6-6.6,5.1-5.3,15.7l0.8,6.2c1.3,10.4,4.1,14.5,9,13.9
					c4-0.5,5.6-3.4,5.7-9.5l7.8-1c-0.1,11.1-4.5,16.6-12.6,17.6c-9.1,1.1-16.1-4.7-18-20l-0.8-6.2c-1.9-15.3,3.6-22.7,12.7-23.8
					c7.8-1,13.9,3.5,16.5,14L331.3,104.2z"/>
			</g>
			<g>
				<path class="st0" d="M369.4,84.2l0.9,7.1l-16.6,2l1.6,12.9l14.8-1.8l0.9,7.1l-14.8,1.8l1.8,14.6l16.6-2l0.9,7.1l-24.8,3l-6-48.8
					L369.4,84.2z"/>
			</g>
		</g>
	</g>
	<g>
		<g>
			<g>
				<path class="st0" d="M422.7,127.2l-24.5,3l-0.7-5.8l10.9-21.3c2-4.1,2.7-7.3,2.3-10.7c-0.5-4.5-3-6.4-5.6-6.1
					c-2.8,0.3-4.4,2.9-4.1,7.3l-7.4,0.9c-1-8.3,4.1-14.4,11-15.3c7.1-0.9,13.3,4.1,14.3,12.3c0.8,6.2-1.9,11.6-3.9,15.5l-7.5,14.8
					l14.4-1.8L422.7,127.2z"/>
			</g>
			<g>
				<path class="st0" d="M444.7,125.1c-7.1,0.9-13.9-3-15.1-13.4l-2.5-20.1c-1.3-10.4,4.4-15.8,11.5-16.6c7.1-0.9,13.9,3,15.1,13.4
					l2.5,20.1C457.4,118.9,451.7,124.3,444.7,125.1z M437.6,110.3c0.7,5.5,2.6,8.2,6.2,7.7c3.6-0.4,4.8-3.5,4.1-9l-2.4-19.2
					c-0.7-5.5-2.6-8.2-6.2-7.7c-3.6,0.4-4.8,3.5-4.1,9L437.6,110.3z"/>
			</g>
			<g>
				<path class="st0" d="M489.1,119l-24.5,3l-0.7-5.8l10.9-21.3c2-4.1,2.7-7.3,2.3-10.7c-0.5-4.5-3-6.4-5.6-6.1
					c-2.8,0.3-4.4,2.9-4.1,7.3l-7.4,0.9c-1-8.3,4.1-14.4,11-15.3c7.1-0.9,13.3,4.1,14.3,12.3c0.8,6.2-1.9,11.6-3.9,15.5l-7.5,14.8
					l14.4-1.8L489.1,119z"/>
			</g>
			<g>
				<path class="st0" d="M511.1,117c-7.1,0.9-13.9-3-15.1-13.4l-2.5-20.1c-1.3-10.4,4.4-15.8,11.5-16.6c7.1-0.9,13.9,3,15.1,13.4
					l2.5,20.1C523.9,110.7,518.2,116.1,511.1,117z M504.1,102.2c0.7,5.5,2.6,8.2,6.2,7.7c3.6-0.4,4.8-3.5,4.1-9L512,81.7
					c-0.7-5.5-2.6-8.2-6.2-7.7c-3.6,0.4-4.8,3.5-4.1,9L504.1,102.2z"/>
			</g>
		</g>
		<g>
			<g>
				<polygon class="st0" points="482,262 375.1,178.4 30.7,220.7 27.9,197.8 381.7,154.3 452.3,209.4 444.6,146.6 531.4,136 
					534.2,158.9 470.3,166.7 				"/>
			</g>
		</g>
	</g>
</g>
<g>
	<g>
		<path class="st0" d="M18.6,67.3L30,97.5l4-32l7.9-0.9l-7.1,44.6l-6.6,0.8L10.7,68.3L18.6,67.3z"/>
	</g>
	<g>
		<path class="st0" d="M59.2,106.2l-7.3,0.9l-5.2-43.2l7.3-0.9L59.2,106.2z"/>
	</g>
	<g>
		<path class="st0" d="M85.7,103l-8.5-16.7l-5.4,0.7l2.1,17.5l-7.3,0.9l-5.2-43.2L74,60.7c8.1-1,13.7,2.7,14.7,11.3
			c0.7,5.9-1.1,10-4.7,12.2l9.6,17.9L85.7,103z M75.6,80.1c4.4-0.5,6.4-2.4,5.8-7.3c-0.6-4.9-3-6.4-7.4-5.8l-4.6,0.6L71,80.7
			L75.6,80.1z"/>
	</g>
	<g>
		<path class="st0" d="M117.2,55.5l0.8,6.3l-9.7,1.2l4.4,36.8l-7.3,0.9L101,63.8L91.3,65l-0.8-6.3L117.2,55.5z"/>
	</g>
	<g>
		<path class="st0" d="M148.9,51.7l3.1,25.6c1.5,12.8-3.5,18.8-11.3,19.7c-7.9,0.9-14.1-3.7-15.7-16.4l-3.1-25.7l7.3-0.9l3.1,25.7
			c1,8.3,3.2,11.5,7.7,10.9c4.4-0.5,5.8-4.2,4.9-12.4l-3.1-25.7L148.9,51.7z"/>
	</g>
	<g>
		<path class="st0" d="M156.9,94.5l6.9-44.6l7.1-0.9l17.3,41.7l-7.7,0.9l-3.3-8.7l-11.6,1.4l-1.1,9.2L156.9,94.5z M166.5,77.9l8.4-1
			l-6.2-16.5L166.5,77.9z"/>
	</g>
	<g>
		<path class="st0" d="M199.3,83.1l14.7-1.8l0.8,6.3l-22,2.6L187.6,47l7.3-0.9L199.3,83.1z"/>
	</g>
	<g>
		<path class="st0" d="M240.5,78.1l14.7-1.8l0.8,6.3l-22,2.6l-5.2-43.2l7.3-0.9L240.5,78.1z"/>
	</g>
	<g>
		<path class="st0" d="M277.3,36.2l0.8,6.3l-14.7,1.8l1.4,11.4l13.1-1.6l0.8,6.3L265.5,62l1.6,12.9l14.7-1.8l0.8,6.3l-22,2.6
			l-5.2-43.2L277.3,36.2z"/>
	</g>
	<g>
		<path class="st0" d="M285.9,79l6.9-44.6l7.1-0.9l17.3,41.7l-7.7,0.9l-3.3-8.7l-11.6,1.4l-1.1,9.2L285.9,79z M295.6,62.4l8.4-1
			l-6.2-16.5L295.6,62.4z"/>
	</g>
	<g>
		<path class="st0" d="M321.9,74.7l-5.2-43.2l12.4-1.5c7.9-1,14.2,3.6,15.9,17.4l0.6,5.1c1.7,13.8-3.3,19.7-11.3,20.6L321.9,74.7z
			 M338.3,53.4l-0.6-5.1c-1.1-8.9-3.1-12.6-7.9-12l-5.2,0.6l3.7,30.7l5.2-0.6C338.3,66.4,339.4,62.3,338.3,53.4z"/>
	</g>
	<g>
		<path class="st0" d="M370.7,25l0.8,6.3l-14.7,1.8l1.4,11.4l13.1-1.6l0.8,6.3l-13.1,1.6l1.6,12.9l14.7-1.8l0.8,6.3l-22,2.6
			l-5.2-43.2L370.7,25z"/>
	</g>
	<g>
		<path class="st0" d="M400.4,65.3l-8.5-16.7l-5.4,0.7l2.1,17.5l-7.3,0.9l-5.2-43.2l12.6-1.5c8.1-1,13.7,2.7,14.7,11.3
			c0.7,5.9-1.1,10-4.7,12.2l9.6,17.9L400.4,65.3z M390.3,42.3c4.4-0.5,6.4-2.4,5.8-7.3c-0.6-4.9-3-6.4-7.4-5.8l-4.6,0.6l1.6,13.1
			L390.3,42.3z"/>
	</g>
	<g>
		<path class="st0" d="M427.5,28.7c-1.9-2.8-3.9-4.2-7.4-3.8c-3.5,0.4-4.9,2.6-4.5,6.2c0.5,4.1,2.9,5.5,7.8,6.2
			c7.6,1.2,11.4,4.1,12.3,11.6c0.8,6.4-2.4,12.9-10.8,13.9c-6.1,0.7-10.8-1-14.4-5.4l5.1-4.5c2.4,2.8,4.4,4.2,8.1,3.7
			c4.2-0.5,5.1-3.3,4.8-6.4c-0.4-3.4-2-5.4-8-6.3c-7.1-1.1-11.3-4.5-12.1-11.8c-0.8-6.5,2.3-12.4,10.8-13.4c5.6-0.7,10,1.1,13.2,5.6
			L427.5,28.7z"/>
	</g>
	<g>
		<path class="st0" d="M446.8,33.8l11.9-1.4l-2.1-17.7l7.3-0.9l5.2,43.2l-7.3,0.9l-2.3-19.2l-11.9,1.4l2.3,19.2l-7.3,0.9L437.5,17
			l7.3-0.9L446.8,33.8z"/>
	</g>
	<g>
		<path class="st0" d="M483.9,55.2l-7.3,0.9l-5.2-43.2l7.3-0.9L483.9,55.2z"/>
	</g>
	<g>
		<path class="st0" d="M496.7,37.7l1.9,15.8l-7.3,0.9l-5.2-43.2l12.6-1.5c8.1-1,13.8,3.2,14.8,12.1c1.1,8.9-3.4,14.4-11.5,15.3
			L496.7,37.7z M500.3,30.9c5-0.6,6.6-3.4,6-8.3c-0.6-4.7-2.8-7.1-7.8-6.5l-4.3,0.5l1.8,14.9L500.3,30.9z"/>
	</g>
</g>
</svg>
