<svg xmlns="http://www.w3.org/2000/svg" viewBox="0 0 318.79 238.55"><defs><style>.cls-1,.cls-2{fill:#fff;}.cls-2{stroke:#fff;stroke-miterlimit:10;stroke-width:0.18px;}</style></defs><title>Asset 1</title><g id="Layer_2" data-name="Layer 2"><g id="Layer_1-2" data-name="Layer 1"><rect class="cls-1" x="0.09" y="182.78" width="318.6" height="1.62"/><rect class="cls-2" x="0.09" y="182.78" width="318.6" height="1.62"/><path class="cls-1" d="M72.77,155.82C64,163.19,57.61,166.7,52.84,166.7c-1.92,0-3.35-1.76-3.35-4.27,0-3.69,1.34-6.11,6-11s6.11-7.2,6.11-9.63a4,4,0,0,0-.5-2.09c-3.69-.08-6.11-.84-6.11-1.93,0-.59.67-1,1.59-1a6.5,6.5,0,0,1,4.94,1.84c3.27-.59,5.78-2.43,9-6.28,3.94-4.77,6-9.63,6-14a6.13,6.13,0,0,0-1.67-4.6C69,117.13,62.8,124.33,53.92,138.15c-8,12.14-12.06,16.92-18.26,21.27A41.74,41.74,0,0,1,12.22,167c-7,0-11.81-2.93-11.81-7.28,0-3.18,3.27-6.53,6.45-6.53,1.84,0,3,1,3,2.6A3.36,3.36,0,0,1,6.78,159a5.58,5.58,0,0,1-2.35-.67,2.56,2.56,0,0,0-1.09-.42c-.67,0-1.26.84-1.26,1.93,0,3.35,3.85,5.69,9.29,5.69a26.36,26.36,0,0,0,16.83-6.78c4.27-3.69,8.37-8.21,14.07-15.49,12.23-16.25,21.52-25.12,31.66-30.4-3.52-2.85-8.88-4.27-16.58-4.27-11,0-20.94,3.18-28.73,9.13-6.45,4.86-10.55,11.72-10.55,17.33,0,3.6,3.18,6.45,7.29,6.45,7.37,0,15.66-5.11,21.69-13.48,3.1-4.27,4.61-7.54,6.53-13.9l1.26.17c-1.93,6.78-3.85,11.47-6.45,15.41C43,137.81,34.08,143,25.87,143c-5.53,0-9.46-3.35-9.46-8.21,0-6.78,5.69-14.82,14.4-20.27a49.7,49.7,0,0,1,26.46-7.2c8.12,0,14,1.59,17.75,4.77a49,49,0,0,1,8.46-3.85l.42.92-.5.25L80,110.93A25.83,25.83,0,0,0,76.2,113c3.43,3.77,4.86,6.87,4.86,10.47,0,5.45-3.85,10.8-9.71,13.57a29.5,29.5,0,0,1-9.13,2.51c1.26,2.85,1.76,4.6,1.76,6.53,0,4.35-1.34,7-6.62,12.73-3.52,3.85-4.61,5.19-4.61,5.86,0,.42.33.67.84.67,3.52,0,11.22-4.35,18.34-10.38Z"/><path class="cls-1" d="M12.22,167.08c-7.14,0-11.94-3-11.94-7.41,0-3.3,3.32-6.66,6.58-6.66,1.91,0,3.14,1.07,3.14,2.73a3.49,3.49,0,0,1-3.23,3.39,5.71,5.71,0,0,1-2.4-.68,2.46,2.46,0,0,0-1-.41c-.61,0-1.13.82-1.13,1.8,0,3.28,3.77,5.57,9.17,5.57,5.69,0,11.8-2.46,16.75-6.75,4.27-3.68,8.34-8.17,14.05-15.47,12.17-16.18,21.32-25,31.52-30.34-3.53-2.77-8.88-4.12-16.35-4.12-10.94,0-20.85,3.15-28.65,9.1-6.38,4.81-10.5,11.57-10.5,17.23,0,3.54,3.14,6.32,7.16,6.32,7.35,0,15.62-5.14,21.58-13.43,3-4.2,4.57-7.44,6.51-13.86l0-.1,1.51.2,0,.14c-2,6.95-3.91,11.56-6.46,15.44-5.44,8.13-14.33,13.37-22.63,13.37-5.65,0-9.59-3.43-9.59-8.34,0-6.89,5.68-14.88,14.46-20.38a50.08,50.08,0,0,1,26.53-7.22c8.13,0,13.94,1.55,17.77,4.75a48.62,48.62,0,0,1,8.4-3.82l.11,0,.52,1.14-.61.31L80,111a25.4,25.4,0,0,0-3.62,2c3.36,3.71,4.79,6.84,4.79,10.44,0,5.51-3.84,10.88-9.79,13.68a29.33,29.33,0,0,1-9,2.5c1.26,2.87,1.7,4.56,1.7,6.43,0,4.4-1.37,7-6.65,12.82-3.22,3.53-4.57,5.11-4.57,5.78,0,.34.27.54.71.54,3.5,0,11.17-4.35,18.26-10.35l.09-.08,1,1-.11.09c-8.89,7.45-15.25,10.92-20,10.92-2,0-3.48-1.85-3.48-4.4,0-3.71,1.36-6.19,6.07-11.06,4.54-4.71,6.08-7.12,6.08-9.54a3.87,3.87,0,0,0-.46-2c-3.8-.1-6.16-.88-6.16-2.05,0-.66.72-1.13,1.72-1.13a6.65,6.65,0,0,1,5,1.83c3.12-.58,5.6-2.33,8.82-6.23,3.93-4.76,6-9.57,6-13.9a6,6,0,0,0-1.57-4.44c-5.8,3.35-12,10.62-20.8,24.28-8.22,12.41-12.15,17-18.29,21.31a41.88,41.88,0,0,1-23.52,7.56M6.86,153.27c-3.07,0-6.32,3.29-6.32,6.4,0,4.28,4.69,7.16,11.68,7.16a41.61,41.61,0,0,0,23.38-7.51c6.11-4.29,10-8.86,18.22-21.24,8.84-13.76,15.11-21.06,21-24.41l.09-.05.07.07a6.23,6.23,0,0,1,1.71,4.69c0,4.4-2.09,9.26-6.06,14.07-3.28,4-5.82,5.75-9,6.33H61.5l0,0a6.34,6.34,0,0,0-4.85-1.81c-.85,0-1.46.37-1.46.88,0,1,2.41,1.72,6,1.8h.08l0,.07a4.18,4.18,0,0,1,.52,2.15c0,2.5-1.55,5-6.15,9.72s-6,7.26-6,10.88c0,2.4,1.35,4.14,3.22,4.14,4.68,0,11-3.42,19.74-10.77l-.65-.65c-7.1,6-14.8,10.34-18.33,10.34-.59,0-1-.31-1-.8,0-.7.91-1.87,4.64-6,5.23-5.73,6.58-8.33,6.58-12.64,0-1.86-.46-3.56-1.75-6.48l-.07-.16.17,0a29.32,29.32,0,0,0,9.09-2.5c5.86-2.76,9.64-8,9.64-13.45,0-3.56-1.44-6.67-4.82-10.38L76,113l.13-.08a26.2,26.2,0,0,1,3.79-2.11l3.43-1.51.38-.19-.32-.7a48.93,48.93,0,0,0-8.33,3.81l-.08,0-.07-.06c-3.78-3.19-9.56-4.74-17.67-4.74a49.82,49.82,0,0,0-26.4,7.18C22.17,120.09,16.54,128,16.54,134.8c0,4.76,3.84,8.08,9.33,8.08,8.22,0,17-5.2,22.42-13.26,2.53-3.83,4.44-8.39,6.39-15.23l-1-.13c-1.94,6.39-3.47,9.63-6.52,13.83-6,8.35-14.36,13.54-21.79,13.54-4.16,0-7.41-2.89-7.41-6.58,0-5.74,4.16-12.59,10.6-17.44,7.84-6,17.8-9.15,28.8-9.15,7.64,0,13.09,1.41,16.66,4.3l.15.12L74,113c-10.23,5.33-19.39,14.12-31.61,30.36-5.73,7.32-9.81,11.82-14.09,15.51-5,4.33-11.16,6.81-16.92,6.81-5.55,0-9.42-2.39-9.42-5.82,0-1.13.62-2.05,1.39-2.05a2.65,2.65,0,0,1,1.16.44,5.45,5.45,0,0,0,2.28.65,3.22,3.22,0,0,0,3-3.14c0-1.52-1.1-2.47-2.89-2.47"/><path class="cls-1" d="M72.09,155c1.84-1.51,2-1.67,2.85-2.34,5.95-7.79,15.91-13.32,23.95-13.32,2.18,0,3.43,1,3.43,2.68a6,6,0,0,1-.67,2.6l3.6-4.52h7.29l-13.4,17.59c-2.85,3.77-4.6,6.45-4.6,7a1.16,1.16,0,0,0,1.09,1c1.34,0,2.51-.75,7.45-4.52,4.1-3.27,5.86-4.61,7.7-6.2l.84.84c-10.55,8.79-14.4,11.39-17.25,11.39-2.51,0-4.19-1.84-4.19-4.69a12,12,0,0,1,1-4.52,43.18,43.18,0,0,1-6.2,5.53c-3.27,2.35-6.62,3.69-9,3.69s-4.52-2.51-4.52-5.61a12.38,12.38,0,0,1,1.51-5.78Zm9.63-.08c-3.69,4.27-6.2,8.21-6.2,9.71a1.32,1.32,0,0,0,1.34,1.34c2.09,0,6.45-2.43,10.22-5.61,7.62-6.53,14-14.82,14-18.09q0-1.26-1.51-1.26c-3.1,0-11.56,6.53-17.84,13.9"/><path class="cls-1" d="M94.37,167.33c-2.58,0-4.32-1.94-4.32-4.82a11.14,11.14,0,0,1,.82-4,40.4,40.4,0,0,1-5.81,5.14c-3.23,2.32-6.64,3.71-9.12,3.71s-4.65-2.57-4.65-5.74a12.33,12.33,0,0,1,1.48-5.75L71.9,155l.11-.09,1.8-1.48,1-.85c6-7.86,15.89-13.35,24-13.35,2.23,0,3.56,1,3.56,2.81a4.8,4.8,0,0,1-.37,1.85l3.11-3.91h7.61L99.24,157.74c-3.38,4.47-4.58,6.54-4.58,7a1,1,0,0,0,1,.88c1.26,0,2.36-.67,7.37-4.5l2.93-2.32c2.15-1.7,3.44-2.73,4.77-3.87l.09-.08,1,1-.11.09c-10.76,9-14.48,11.42-17.33,11.42M91.5,157.5l-.19.54a11.86,11.86,0,0,0-1,4.48c0,2.77,1.59,4.56,4.06,4.56,2.77,0,6.44-2.42,17.06-11.27l-.65-.65c-1.3,1.12-2.59,2.14-4.69,3.8l-2.93,2.32c-4.84,3.69-6.11,4.55-7.53,4.55a1.3,1.3,0,0,1-1.22-1.13c0-.89,3.24-5.27,4.63-7.11l13.24-17.38h-7l-4.13,5.18.35-.84a5.93,5.93,0,0,0,.66-2.55c0-1.62-1.2-2.55-3.3-2.55-8,0-18,5.58-23.85,13.26l0,0-1,.86L72.28,155l.8.8,0,.08a12.19,12.19,0,0,0-1.5,5.72c0,3,2,5.48,4.39,5.48s5.78-1.37,9-3.66a43,43,0,0,0,6.18-5.51Zm-14.64,8.58a1.45,1.45,0,0,1-1.47-1.47c0-1.54,2.5-5.48,6.23-9.8,6.22-7.3,14.77-13.95,17.93-13.95,1.35,0,1.64.75,1.64,1.39,0,3.34-6.43,11.67-14,18.19-3.87,3.27-8.2,5.64-10.3,5.64m22.69-25c-3.1,0-11.56,6.6-17.74,13.86-3.63,4.21-6.17,8.17-6.17,9.63a1.2,1.2,0,0,0,1.21,1.21c2,0,6.3-2.35,10.13-5.58,7.56-6.48,13.94-14.71,13.94-18,0-.77-.44-1.13-1.38-1.13"/><path class="cls-1" d="M110.78,155l1.93-1.59,1.09-.92c5.78-7.45,16-13.15,23.45-13.15,2.34,0,3.69,1.09,3.69,2.93a5.15,5.15,0,0,1-.5,2.09l23.11-30.06h7.12l-33.41,44c-2.93,3.94-4.1,5.78-4.1,6.45a1,1,0,0,0,.92.92c1.84,0,8.63-4.52,15.83-10.64l.84.84c-10.39,8.71-14.66,11.39-18,11.39-2.51,0-3.94-1.67-3.94-4.77a9.81,9.81,0,0,1,.84-4.19c-4.69,5.11-11,9-14.74,9-2.85,0-4.86-2.18-4.86-5.44a13.76,13.76,0,0,1,1.59-5.95Zm14.91-5.78c-6.62,6.28-11.64,12.9-11.64,15.49A1.19,1.19,0,0,0,115.3,166c3.69,0,10.55-5,17.67-12.9,4.19-4.61,6.78-8.79,6.78-10.8,0-.92-.67-1.42-1.67-1.42-1.93,0-7.7,3.85-12.39,8.38"/><path class="cls-1" d="M132.72,167.33c-2.62,0-4.06-1.74-4.06-4.9a9.38,9.38,0,0,1,.63-3.63c-4.73,5-10.71,8.54-14.4,8.54-2.93,0-5-2.29-5-5.57a13.89,13.89,0,0,1,1.56-5.92l-.87-.87,2-1.68,1.08-.91c5.74-7.4,16.08-13.19,23.54-13.19,2.39,0,3.81,1.14,3.81,3.06a4.06,4.06,0,0,1-.23,1.36l22.65-29.46h7.44l-33.57,44.17c-2.86,3.84-4.08,5.74-4.08,6.37a.86.86,0,0,0,.79.79c1.82,0,8.74-4.66,15.74-10.6l.09-.08,1,1-.11.09c-10.43,8.75-14.66,11.42-18.09,11.42M130,157.66l-.24.63a9.68,9.68,0,0,0-.83,4.14c0,3,1.35,4.65,3.81,4.65,3.3,0,7.64-2.74,17.81-11.27l-.65-.66c-7.13,6-13.92,10.59-15.82,10.59a1.12,1.12,0,0,1-1.05-1c0-.71,1.16-2.54,4.13-6.53l33.26-43.76h-6.8L140,145.13l.32-.83a5,5,0,0,0,.49-2c0-1.78-1.3-2.8-3.56-2.8-7.4,0-17.65,5.75-23.35,13.1l0,0-1.09.92L111,155l.8.8,0,.08a13.68,13.68,0,0,0-1.58,5.89c0,3.18,1.9,5.32,4.73,5.32,3.68,0,10-3.84,14.65-8.92Zm-14.68,8.42a1.31,1.31,0,0,1-1.39-1.39c0-2.61,4.91-9.16,11.68-15.59,4.65-4.48,10.48-8.41,12.48-8.41,1.11,0,1.8.6,1.8,1.55,0,2.06-2.68,6.33-6.82,10.89-7.22,8-14,12.94-17.77,12.94M138.08,141c-1.91,0-7.78,4-12.3,8.34h0c-6.61,6.28-11.6,12.9-11.6,15.4a1.06,1.06,0,0,0,1.13,1.13c3.62,0,10.51-5,17.57-12.85,4.1-4.51,6.75-8.72,6.75-10.72,0-.81-.58-1.29-1.55-1.29"/><path class="cls-1" d="M150,155c2-1.68,2.6-2.18,3.85-3.18,4.61-6.87,14.74-18.59,23.11-27,9.8-9.71,18.68-15.75,23.2-15.75,1.51,0,2.43.76,2.43,2.09,0,3.43-5,9.46-14.24,16.92-4.35,3.52-14.82,11.39-19.18,14.4-1.17,1.51-2.6,3.35-5.95,7.62-8.21,10.55-9.8,12.9-9.8,14.49,0,.67.67,1.17,1.59,1.17,4.44,0,11-4.35,17.92-12.14a15.46,15.46,0,0,1-.25-2.18c0-5.28,5-12.31,8.71-12.31a1.24,1.24,0,0,1,1.17,1.34c0,3-3.77,9.21-8.21,13.4.84,2,1.84,2.85,3.27,2.85,1.09,0,2.09-.5,3.52-1.76l.84.84c-1.76,1.42-3,2-4.44,2-1.76,0-2.93-.92-4-2.93a55.07,55.07,0,0,1-4.94,4.94c-5.53,4.94-10.13,7.29-13.9,7.29-2.76,0-4.69-2.26-4.69-5.36a14.09,14.09,0,0,1,2-7c-.5.42-.59.5-1.17,1Zm39.44-29.56c7-5.95,11.22-11.14,11.22-13.9a1.13,1.13,0,0,0-1.09-1.17c-2.51,0-8.46,4.77-13.9,11.22-5.78,6.87-10.8,13.32-13.32,17,3.1-2,12.73-9.38,17.08-13.15"/><path class="cls-1" d="M154.66,167.25c-2.79,0-4.82-2.31-4.82-5.49a13.62,13.62,0,0,1,1.72-6.43l-.17.15-.5.44-.09.08-1-1,1.28-1.07c1.13-.94,1.7-1.42,2.66-2.19,4.48-6.68,14.42-18.27,23.12-27C186.67,115,195.59,109,200.14,109c1.6,0,2.56.83,2.56,2.22,0,3.52-5.07,9.56-14.28,17-4.47,3.61-14.85,11.4-19.17,14.4l-.68.88c-1.07,1.37-2.53,3.25-5.25,6.73-8.22,10.57-9.77,12.85-9.77,14.41,0,.6.61,1,1.46,1,4.46,0,10.94-4.39,17.78-12.05a14.82,14.82,0,0,1-.24-2.14c0-5.35,5-12.44,8.84-12.44a1.36,1.36,0,0,1,1.3,1.47c0,3.08-3.74,9.21-8.18,13.43.8,1.88,1.73,2.69,3.11,2.69,1,0,2-.5,3.43-1.73l.09-.08,1,1-.11.09c-1.81,1.47-3.08,2-4.52,2-1.71,0-2.93-.85-4-2.83a56.79,56.79,0,0,1-4.83,4.81c-5.43,4.86-10.14,7.32-14,7.32m-2.26-13-.31.58a14,14,0,0,0-2,6.89c0,3.08,1.88,5.23,4.56,5.23,3.78,0,8.43-2.44,13.82-7.25a55.49,55.49,0,0,0,4.93-4.93l.12-.14.09.16c1.1,2,2.23,2.87,3.91,2.87,1.35,0,2.54-.53,4.25-1.89l-.65-.65c-1.39,1.21-2.42,1.71-3.51,1.71-1.5,0-2.54-.9-3.39-2.93l0-.08.06-.06c4.35-4.1,8.17-10.32,8.17-13.3a1.11,1.11,0,0,0-1-1.21c-3.61,0-8.58,7.06-8.58,12.18a15.11,15.11,0,0,0,.25,2.16v.06l0,0c-6.91,7.74-13.48,12.19-18,12.19-1,0-1.72-.55-1.72-1.3,0-1.63,1.56-3.94,9.83-14.57,2.72-3.47,4.18-5.35,5.25-6.73l.72-.92c4.31-3,14.7-10.79,19.17-14.4,9-7.3,14.19-13.42,14.19-16.82,0-1.25-.84-2-2.3-2-4.48,0-13.34,6-23.11,15.71-8.7,8.7-18.63,20.28-23.1,26.95l0,0c-1,.78-1.54,1.25-2.68,2.2l-1.07.89.65.65.41-.36.67-.57ZM171.87,139l.36-.53c2.61-3.83,7.71-10.35,13.32-17,5.42-6.42,11.44-11.27,14-11.27a1.26,1.26,0,0,1,1.22,1.3c0,2.8-4.21,8-11.27,14-4.42,3.83-14.11,11.22-17.1,13.16Zm27.68-28.55c-2.49,0-8.42,4.8-13.8,11.18s-10.23,12.56-12.93,16.44c3.48-2.37,12.34-9.16,16.51-12.77h0c7-5.91,11.18-11.07,11.18-13.8a1,1,0,0,0-1-1"/><path class="cls-1" d="M181.12,155c2.18-1.76,5.78-4.86,10.89-9.29l4.27-5.61H204l-14.65,19.09,16.83-14.07c1.09-3.52,3.43-5.86,5.95-5.86h5.19l-.67.75c-3.69,3.68-5.11,5.7-5.11,7.12,0,.5.33.75,1.42.75l-.17,1.09a19.37,19.37,0,0,1-2,.17c-2.26,0-3.52-.67-4.44-2.43l-20.85,17.59L184,166h-7.45l12.06-15.83L182,155.82Z"/><path class="cls-1" d="M184,166.16h-7.77l11.5-15.09L182,156l-1-1,.11-.09c2.21-1.79,5.95-5,10.87-9.28l4.3-5.65h8l-14.1,18.38L206.05,145c1.12-3.59,3.5-5.92,6.06-5.92h5.48l-.86,1c-3.61,3.61-5.08,5.64-5.08,7,0,.32.1.63,1.3.63h.15l-.21,1.33h-.1l-.61.06a12,12,0,0,1-1.41.1c-2.27,0-3.54-.66-4.48-2.36l-20.73,17.48Zm-7.25-.26h7.13l1.47-1.71,21-17.7.07.14c.89,1.7,2.1,2.36,4.32,2.36a11.66,11.66,0,0,0,1.39-.1l.51-.06.13-.84c-1,0-1.4-.28-1.4-.88,0-1.48,1.44-3.51,5.15-7.21l.47-.53h-4.91c-2.45,0-4.74,2.27-5.82,5.77v0L188.52,160l15.21-19.81h-7.38l-4.25,5.58c-4.85,4.22-8.55,7.4-10.78,9.21l.65.65,7.43-6.3Z"/><path class="cls-1" d="M208.51,155c1.84-1.59,2.51-2.09,3.85-3.18,5.44-7.12,14.66-12.48,21.52-12.48,2.34,0,3.69,1.09,3.69,3.1,0,3.35-1.84,7.2-5.44,11.64a4.5,4.5,0,0,0,3.94,2.34,5.54,5.54,0,0,0,3.69-1.42l.84.84a7,7,0,0,1-4.61,1.76,5.17,5.17,0,0,1-4.6-2.6l-2.51,2.93c-4.61,5.36-11,9.3-15.07,9.3-3,0-5.11-2.43-5.11-5.95a12.65,12.65,0,0,1,1.59-6.2l-.92.76Zm27.89-12.56a1.46,1.46,0,0,0-1.42-1.59c-5.11,0-22.78,18.26-22.78,23.53a1.92,1.92,0,0,0,1.93,1.76c4.19,0,10.47-4.69,16.5-12.14a6.31,6.31,0,0,1-.59-2.43c0-2.93,2.26-5.78,5.95-7.29a4.89,4.89,0,0,0,.42-1.84"/><path class="cls-1" d="M213.78,167.33c-3.08,0-5.24-2.5-5.24-6.07a12.38,12.38,0,0,1,1.35-5.73l-.56.46-1-1,.1-.09c1.39-1.2,2.12-1.79,3-2.46l.88-.71c5.46-7.14,14.75-12.52,21.61-12.52,2.42,0,3.81,1.18,3.81,3.23,0,3.33-1.77,7.14-5.41,11.65a4.33,4.33,0,0,0,3.78,2.21,5.39,5.39,0,0,0,3.6-1.4l.09-.07,1,1-.11.09A7.17,7.17,0,0,1,236,157.7a5.27,5.27,0,0,1-4.62-2.51L229,158c-4.65,5.41-11,9.34-15.17,9.34m-3.13-12.75-.27.54a12.54,12.54,0,0,0-1.58,6.14c0,3.42,2,5.82,5,5.82,4.07,0,10.37-3.89,15-9.25l2.62-3.06.09.14a5.08,5.08,0,0,0,4.5,2.54,6.88,6.88,0,0,0,4.41-1.64l-.66-.66a5.62,5.62,0,0,1-3.67,1.38,4.59,4.59,0,0,1-4-2.4l-.05-.08L232,154c3.64-4.49,5.42-8.27,5.42-11.56,0-1.92-1.26-3-3.56-3-6.79,0-16,5.34-21.42,12.43l0,0-.9.72c-.82.66-1.53,1.23-2.85,2.37l.66.66Zm3.47,11.66a2.06,2.06,0,0,1-2.06-1.89c0-5.31,17.77-23.66,22.91-23.66a1.59,1.59,0,0,1,1.55,1.72,5,5,0,0,1-.43,1.89l0,.05-.05,0c-3.56,1.46-5.87,4.27-5.87,7.17a6.24,6.24,0,0,0,.58,2.38l0,.07,0,.06c-6.08,7.52-12.44,12.19-16.6,12.19M235,141c-5.08,0-22.65,18.15-22.65,23.4a1.79,1.79,0,0,0,1.8,1.63c4.07,0,10.33-4.61,16.35-12a6.28,6.28,0,0,1-.57-2.41c0-3,2.34-5.88,6-7.38a4.63,4.63,0,0,0,.39-1.74A1.33,1.33,0,0,0,235,141"/><path class="cls-1" d="M233,155c1.84-1.59,2.51-2.09,3.85-3.18,5.44-7.12,14.66-12.48,21.52-12.48,2.34,0,3.69,1.09,3.69,3.1,0,3.35-1.84,7.2-5.44,11.64a4.5,4.5,0,0,0,3.94,2.34,5.54,5.54,0,0,0,3.69-1.42l.84.84a7,7,0,0,1-4.61,1.76,5.17,5.17,0,0,1-4.6-2.6l-2.51,2.93c-4.61,5.36-11,9.3-15.07,9.3-3,0-5.11-2.43-5.11-5.95a12.65,12.65,0,0,1,1.59-6.2l-.92.76Zm27.89-12.56a1.46,1.46,0,0,0-1.42-1.59c-5.11,0-22.78,18.26-22.78,23.53a1.92,1.92,0,0,0,1.93,1.76c4.19,0,10.47-4.69,16.5-12.14a6.29,6.29,0,0,1-.59-2.43c0-2.93,2.26-5.78,5.95-7.29a4.89,4.89,0,0,0,.42-1.84"/><path class="cls-1" d="M238.32,167.33c-3.08,0-5.24-2.5-5.24-6.07a12.38,12.38,0,0,1,1.35-5.73l-.56.46-1-1,.1-.09c1.39-1.2,2.12-1.79,3-2.46l.88-.71c5.46-7.14,14.75-12.52,21.61-12.52,2.42,0,3.81,1.18,3.81,3.23,0,3.33-1.77,7.14-5.41,11.65a4.33,4.33,0,0,0,3.78,2.21,5.39,5.39,0,0,0,3.6-1.4l.09-.07,1,1-.11.09a7.17,7.17,0,0,1-4.69,1.79,5.27,5.27,0,0,1-4.62-2.51l-2.4,2.8c-4.65,5.41-11,9.34-15.17,9.34m-3.13-12.75-.27.54a12.54,12.54,0,0,0-1.58,6.14c0,3.42,2,5.82,5,5.82,4.07,0,10.37-3.89,15-9.25l2.62-3.06.09.14a5.08,5.08,0,0,0,4.5,2.54,6.88,6.88,0,0,0,4.41-1.64l-.66-.66a5.62,5.62,0,0,1-3.67,1.38,4.6,4.6,0,0,1-4-2.4l-.05-.08.06-.08c3.64-4.49,5.42-8.27,5.42-11.56,0-1.92-1.26-3-3.56-3-6.79,0-16,5.34-21.42,12.43l0,0-.9.72c-.82.66-1.53,1.23-2.85,2.37l.66.66Zm3.47,11.66a2.06,2.06,0,0,1-2.06-1.89c0-5.31,17.77-23.66,22.91-23.66a1.59,1.59,0,0,1,1.55,1.72,5,5,0,0,1-.43,1.89l0,.05-.05,0c-3.56,1.46-5.87,4.27-5.87,7.17a6.24,6.24,0,0,0,.58,2.38l0,.07,0,.06c-6.08,7.52-12.44,12.19-16.6,12.19M259.51,141c-5.08,0-22.65,18.15-22.65,23.4a1.79,1.79,0,0,0,1.8,1.63c4.07,0,10.33-4.61,16.35-12a6.28,6.28,0,0,1-.57-2.41c0-3,2.34-5.88,6-7.38a4.63,4.63,0,0,0,.39-1.74,1.33,1.33,0,0,0-1.29-1.46"/><path class="cls-1" d="M264.28,155q3.27-2.64,10.55-9l3.52-4.52c7.37-9.71,14.74-17.67,21.27-23.11,7-5.7,12.9-9,16.33-9a2.27,2.27,0,0,1,2.43,2c0,3.6-5.95,10.47-15.49,17.92-3.52,2.68-13.15,9.38-16.92,11.72L279.52,149c8.29-6.36,15.33-10,19.43-10,2.09,0,3.85,1.17,3.85,2.68,0,2.6-2.09,4.94-5.86,6.62-2.93,1.34-5.44,1.93-10.8,2.6,3.18,1.26,4.27,2.51,4.27,4.86,0,1.92-.75,3.52-2.93,6.28-1.34,1.76-1.67,2.35-1.67,2.76,0,.25.5.59.92.59,2,0,8.79-4.52,15.66-10.39l.84.84c-9.63,8-14.65,11.14-17.84,11.14a4.21,4.21,0,0,1-4-4.1c0-2,.92-4.1,2.85-6.62,1.59-2.09,2-2.68,2-3.35,0-.92-.75-1.51-2-1.51h-1.93l.67-.92a19.19,19.19,0,0,0,9-3.1c3.77-2.26,6.87-5,6.87-6.2,0-.42-.5-.75-1.09-.75-2.34,0-8.29,2.85-13.15,6.28a55,55,0,0,0-11.64,11.22l-6.2,8.12h-7.2l11.89-15.49c-4.86,4.1-5.61,4.69-6.28,5.28Zm40-28.64c7.37-6.36,12.14-12.06,12.14-14.74a1.31,1.31,0,0,0-1.34-1.26c-4.1,0-15.66,11.89-27.05,27.72a160.31,160.31,0,0,0,16.25-11.72"/><path class="cls-1" d="M285.38,167.08a4.36,4.36,0,0,1-4.15-4.23c0-2,.91-4.14,2.87-6.69,1.54-2,2-2.64,2-3.27,0-.86-.7-1.38-1.88-1.38H282l.85-1.17h.06a19.07,19.07,0,0,0,8.91-3.08c3.75-2.25,6.8-5,6.8-6.09,0-.34-.44-.63-1-.63-2.33,0-8.19,2.81-13.07,6.26A54.61,54.61,0,0,0,273,158l-6.24,8.18h-7.53l11.32-14.75c-2.27,1.92-3.47,2.92-4.23,3.55l-1.14,1-.09.08-1-1,.11-.09c2.17-1.75,5.71-4.79,10.55-9l3.5-4.51c7.27-9.59,14.64-17.59,21.29-23.13,7.14-5.85,13-9.07,16.41-9.07a2.38,2.38,0,0,1,2.56,2.14c0,3.63-6,10.54-15.54,18-3.38,2.58-13,9.3-16.91,11.72l-5.8,7.3c8.09-6.1,14.71-9.45,18.69-9.45,2.2,0,4,1.26,4,2.81,0,2.64-2.11,5-5.94,6.73-2.8,1.28-5.27,1.89-10.35,2.54,2.87,1.21,3.9,2.5,3.9,4.79,0,1.95-.75,3.55-3,6.36-1.25,1.64-1.65,2.29-1.65,2.68,0,.14.4.46.79.46,2,0,8.66-4.45,15.58-10.35l.09-.08,1,1-.11.09c-9.63,8-14.65,11.17-17.92,11.17m-2.85-15.83h1.67c1.32,0,2.14.63,2.14,1.64,0,.72-.42,1.3-2,3.43-1.92,2.51-2.82,4.59-2.82,6.54a4.09,4.09,0,0,0,3.89,4c3.15,0,8.26-3.19,17.65-11l-.65-.65c-6.92,5.9-13.64,10.34-15.65,10.34-.45,0-1-.35-1-.72s.38-1.11,1.7-2.84c2.17-2.76,2.9-4.32,2.9-6.2,0-2.3-1.06-3.5-4.19-4.74l-.47-.19.5-.06c5.39-.67,7.91-1.28,10.77-2.58,3.73-1.66,5.79-4,5.79-6.5,0-1.41-1.67-2.55-3.72-2.55-4,0-11.05,3.65-19.35,10l-.83.64,7.13-9c3.87-2.41,13.52-9.14,16.91-11.72,9.52-7.44,15.44-14.27,15.44-17.82a2.15,2.15,0,0,0-2.3-1.88c-3.33,0-9.26,3.29-16.25,9-6.64,5.53-14,13.52-21.25,23.09L274.93,146c-4.77,4.2-8.28,7.21-10.46,9l.65.65,1.05-.88c.85-.71,2.27-1.89,5.14-4.32l.91-.77L259.77,165.9h6.88l6.16-8.07a54.84,54.84,0,0,1,11.67-11.25c4.92-3.48,10.85-6.3,13.22-6.3.67,0,1.22.4,1.22.88,0,1.35-3.52,4.26-6.93,6.31a19.29,19.29,0,0,1-9,3.11Zm5.06-12.76L288,138c11.58-16.09,23-27.77,27.15-27.77a1.43,1.43,0,0,1,1.47,1.39c0,2.66-4.67,8.35-12.19,14.84h0a160,160,0,0,1-16.26,11.74Zm27.52-28c-4,0-15.34,11.63-26.57,27.15a162.88,162.88,0,0,0,15.69-11.38c7.46-6.45,12.1-12.06,12.1-14.64a1.17,1.17,0,0,0-1.21-1.13"/><path class="cls-1" d="M116,15.62s-1,3.32,1,5.65S123,24,123,24s1-3.32-1-5.64S116,15.62,116,15.62"/><path class="cls-1" d="M109.86,33.51a7.66,7.66,0,0,0-3.46,4.94s4,.84,6.87-.73a7.66,7.66,0,0,0,3.46-4.94s-4-.84-6.87.73"/><path class="cls-1" d="M132,41.85c-2.81-1.62-6.85-.87-6.85-.87a7.57,7.57,0,0,0,3.31,5c2.81,1.62,6.85.87,6.85.87a7.57,7.57,0,0,0-3.31-5"/><path class="cls-1" d="M141.69,26.22s-1.77,3.09-.45,5.69,5.23,3.75,5.23,3.75,1.77-3.09.45-5.69-5.23-3.75-5.23-3.75"/><path class="cls-1" d="M149.22,22.11c-.83,2.74,1.49,5.57,1.49,5.57s3.65-1.61,4.48-4.35-1.49-5.57-1.49-5.57-3.65,1.61-4.48,4.35"/><path class="cls-1" d="M160.54,1.51a7.54,7.54,0,0,0-3.26,5s4.05.72,6.84-.92a7.54,7.54,0,0,0,3.26-5s-4.05-.72-6.84.92"/><path class="cls-1" d="M152,82.34c-1.48,2.55.1,5.7.1,5.7s4-1,5.45-3.52-.1-5.7-.1-5.7-4,1-5.45,3.52"/><path class="cls-1" d="M176.31,79.32c-3.08-1.25-6.93,0-6.93,0a8.21,8.21,0,0,0,4.21,4.53c3.08,1.25,6.93,0,6.93,0a8.21,8.21,0,0,0-4.21-4.53"/><path class="cls-1" d="M171.29,63.92c-.31,2.81,2.51,5.32,2.51,5.32s3.31-2.05,3.62-4.86-2.51-5.32-2.51-5.32-3.31,2.05-3.62,4.86"/><path class="cls-1" d="M151.32,59.22c-2.08,2.24-1.33,5.6-1.33,5.6s4.13-.28,6.22-2.52,1.33-5.6,1.33-5.6-4.13.28-6.22,2.52"/><path class="cls-1" d="M140.19,56.64a9.07,9.07,0,0,0-5.12,3.85s3.52,1.8,6.82,1A9.07,9.07,0,0,0,147,57.66s-3.52-1.8-6.82-1"/><path class="cls-1" d="M117.09,59.14c-3.12-1.17-6.93.19-6.93.19a8.37,8.37,0,0,0,4.39,4.42c3.12,1.17,6.93-.2,6.93-.2a8.36,8.36,0,0,0-4.39-4.41"/><path class="cls-1" d="M203.79,24.53a10.07,10.07,0,0,0-6,2.92,10.76,10.76,0,0,0,6.43,2.13,10.07,10.07,0,0,0,6-2.92,10.76,10.76,0,0,0-6.43-2.13"/><path class="cls-1" d="M191.23,8.34s-2.89,2.45-2.67,5.26S192,18.53,192,18.53s2.89-2.45,2.67-5.26-3.47-4.94-3.47-4.94"/><path class="cls-1" d="M172.27,20.28a8.32,8.32,0,0,0-4.34,4.45s3.82,1.33,6.93.15a8.33,8.33,0,0,0,4.34-4.45s-3.82-1.33-6.93-.14"/><path class="cls-1" d="M180.69,36.43a11,11,0,0,0-6.56,1.85,9.82,9.82,0,0,0,5.76,3.17,11,11,0,0,0,6.56-1.85,9.83,9.83,0,0,0-5.76-3.17"/><path class="cls-1" d="M187,47c-2.47-2-6.61-1.72-6.61-1.72a7.08,7.08,0,0,0,2.34,5.37c2.47,2,6.61,1.72,6.61,1.72A7.08,7.08,0,0,0,187,47"/><path class="cls-1" d="M199.38,60.54s-2.79,2.52-2.46,5.33,3.67,4.84,3.67,4.84,2.79-2.52,2.46-5.33-3.67-4.84-3.67-4.84"/><path class="cls-1" d="M168.91,56.29c-.06.22-.12.44-.18.66.06-.22.13-.44.18-.66"/><path class="cls-1" d="M163.31,57.53c.22-.64.41-1.29.58-2-.17.66-.37,1.31-.58,2"/><path class="cls-1" d="M164.46,52.91c.08-.47.16-1,.22-1.44-.06.48-.14,1-.22,1.44"/><path class="cls-1" d="M163.95,55.36q.23-.89.4-1.81-.18.91-.4,1.81"/><path class="cls-1" d="M164.76,50.71c0-.46.08-.92.11-1.38,0,.46-.07.92-.11,1.38"/><path class="cls-1" d="M164.85,44.17c.05.73.09,1.45.1,2.16,0-.71,0-1.43-.1-2.16"/><path class="cls-1" d="M170,46.11c0-.76,0-1.53-.1-2.31h0c.06.78.1,1.54.12,2.31h0"/><path class="cls-1" d="M164.92,48.53c0-.49,0-1,0-1.48,0,.5,0,1,0,1.48"/><path class="cls-1" d="M167.48,60.61c-.12.3-.25.6-.38.9.13-.3.25-.6.38-.9"/><path class="cls-1" d="M166.24,63.35c.11-.21.2-.44.31-.65l-.32.65Z"/><path class="cls-1" d="M169.84,51c0,.36-.08.72-.12,1.08,0-.36.09-.72.12-1.08"/><path class="cls-1" d="M168.26,58.49c-.09.27-.18.54-.28.81.09-.27.19-.54.28-.81"/><path class="cls-1" d="M169.44,53.83l-.08.41.08-.41"/><path class="cls-1" d="M161.76,61.28q.27-.54.51-1.09-.24.55-.51,1.09"/><path class="cls-1" d="M162.6,59.42c.17-.41.33-.84.48-1.26-.15.42-.31.84-.48,1.26"/><path class="cls-1" d="M183.37,56.69c-4.09-5.05-8.58-8.59-13.35-10.58h0c0-.76-.06-1.53-.12-2.31a48,48,0,0,0-.72-5.47,49.45,49.45,0,0,0-4.82,1.79q.34,2.07.49,4.06c.05.73.09,1.45.1,2.16,0,.25,0,.48,0,.73,0,.5,0,1,0,1.48,0,.27,0,.54,0,.8q0,.7-.11,1.38c0,.25-.05.51-.09.76-.06.48-.13,1-.22,1.44,0,.21-.07.43-.11.64-.12.61-.25,1.21-.4,1.8,0,.07,0,.15-.05.22-.17.66-.37,1.31-.58,2-.07.21-.15.42-.23.63-.15.42-.31.84-.48,1.26-.11.26-.22.51-.33.77s-.33.73-.51,1.09a31.88,31.88,0,0,1-4.87,7.19l-.77.84c-4-1.67-10-2.87-16.51-3.25-1.43-.08-3-.14-4.76-.13a32.71,32.71,0,0,0-3.44-5.39A40,40,0,0,0,125,54a39.61,39.61,0,0,0-18.65-8.41q.09,1.66.35,3.33.08.53.18,1.05a35.15,35.15,0,0,1,22.51,16.12,83.19,83.19,0,0,0-13.8,2.1,45.38,45.38,0,0,0,3.32,3.59,77.06,77.06,0,0,1,20.35-1.57,51.79,51.79,0,0,1,13.34,2.34,49.43,49.43,0,0,1-8,5.29,68.27,68.27,0,0,1-10,4.31,58.84,58.84,0,0,0,6.18,2.28,69.71,69.71,0,0,0,6.58-3.08,53.7,53.7,0,0,0,9.5-6.4,19.84,19.84,0,0,1,4.5,5.88,22.21,22.21,0,0,1,2,6.26q1.27-.08,2.54-.21t2.51-.31a25.88,25.88,0,0,0-2.4-7.35,23.91,23.91,0,0,0-1.25-2.17,70.72,70.72,0,0,1,9.41-.46,40.64,40.64,0,0,1,8.37.86,26.7,26.7,0,0,1-.67-4.43,54.84,54.84,0,0,0-7.59-.62,64.3,64.3,0,0,0-12.52.88c-.55-.56-1.09-1.07-1.6-1.5L161,71a36.15,36.15,0,0,0,5.24-7.61l.32-.65c.19-.39.38-.79.55-1.18s.25-.6.38-.9.34-.87.5-1.32c.1-.27.19-.54.28-.81.17-.51.32-1,.47-1.54.06-.22.13-.44.18-.66s.08-.26.11-.39c.13-.54.25-1.09.35-1.65l.08-.41c.1-.59.2-1.19.27-1.79,0-.36.09-.72.12-1.08v-.1A32.37,32.37,0,0,1,179.14,59a52.81,52.81,0,0,1,3.59,5c.17-.72.37-1.43.6-2.15a35.89,35.89,0,0,1,1.33-3.54q-.64-.85-1.29-1.66"/><path class="cls-1" d="M197.53,44.55a31.56,31.56,0,0,1-4.21-10.67,56.94,56.94,0,0,1,9.56,3.06,66.11,66.11,0,0,1,9.55,5,36.17,36.17,0,0,0-.37-3.75q-.14-.9-.32-1.79a69.34,69.34,0,0,0-6.56-3.16,62.29,62.29,0,0,0-11.48-3.57,18.88,18.88,0,0,1,3.94-6.14,29.15,29.15,0,0,1,5.56-4.59q-1.44-1.74-3.06-3.34A33.9,33.9,0,0,0,193.6,21c-.62.67-1.17,1.33-1.66,2a48.28,48.28,0,0,1-5.19-6.47,25.29,25.29,0,0,1-3.28-6.4,39.46,39.46,0,0,1-4.33,2.69,34.62,34.62,0,0,0,3.14,5.71,44.88,44.88,0,0,0,7.19,8.48,19.22,19.22,0,0,0-.78,1.89l-1.28-.13a55.16,55.16,0,0,0-19.87,1.81,59,59,0,0,0-5.72,1.92,25.38,25.38,0,0,1,3.93-10.69,52.52,52.52,0,0,1,3.51-5.08q-1.26.35-2.56.65c-1.45.33-2.92.6-4.4.82q-.58.88-1.1,1.75c-3.28,5.44-4.76,10.42-4.47,14.81A71.37,71.37,0,0,0,149,39.17a45.79,45.79,0,0,0,4.29,2.54c10.85-6.92,22.14-9.9,33.59-8.86l1.27.13c.25,3.7,2,8.57,4.84,13.39.63,1.07,1.37,2.23,2.24,3.47a34.2,34.2,0,0,0-4,5.15,33.79,33.79,0,0,0-3.64,7.81,25.15,25.15,0,0,0,.47,17.48q2.27-1.19,4.35-2.55a22,22,0,0,1,.1-13.88,30.83,30.83,0,0,1,5.61-10.21,62.12,62.12,0,0,0,9.12,8.79,39.85,39.85,0,0,0,2.11-4.17,53.78,53.78,0,0,1-11.83-13.72"/><path class="cls-1" d="M145.58,18.21c.81-1,1.66-2.09,2.52-3.33a49,49,0,0,0,5.33.28q1,0,2.06,0a54.8,54.8,0,0,0,10-1.31c7.41-1.68,13.69-4.82,18.18-9.08q-2.38-1-4.88-1.81a34.5,34.5,0,0,1-14.66,6.87,48.86,48.86,0,0,1-13.54,1.11A51.11,51.11,0,0,0,155.33,0q-1.26.08-2.51.21-1.47.15-2.93.37a48.9,48.9,0,0,1-8.53,15.3,39.65,39.65,0,0,1-9.13,8.33l0-.12a35.51,35.51,0,0,1-1.61-11,44.15,44.15,0,0,1,.53-6.5,54.49,54.49,0,0,0-5.48,3.25c-.08,1.09-.13,2.17-.14,3.24a39,39,0,0,0,1.77,12.08c.1.3.2.6.3.91a29.22,29.22,0,0,1-8.43.27,36.72,36.72,0,0,1-7.61-1.67,39.88,39.88,0,0,0-2,3.86,42.8,42.8,0,0,0,8.93,2c1,.11,2,.16,2.91.19a45.17,45.17,0,0,1-4.22,6.94,29.13,29.13,0,0,1-5.1,5.53,43.54,43.54,0,0,1,5,1.74,38.53,38.53,0,0,0,4.44-5.1,40.72,40.72,0,0,0,5.33-9.36c.86-.11,1.67-.24,2.38-.38a38.1,38.1,0,0,0,11,13.22h0c.6.47,1.23.92,1.87,1.37l.69.47q.89.6,1.82,1.18l.43.28h0l1.39.82a41.66,41.66,0,0,1-13.22,2.54c-2.24.12-4.61.13-7.1,0q1,.72,2,1.5c1.07.87,2.09,1.78,3.06,2.72q1.22,0,2.39-.09c7.37-.39,13.34-1.82,17.82-4.22a77.23,77.23,0,0,0,8.43,3.24,30.58,30.58,0,0,0,.53-4.33,65.61,65.61,0,0,1-9.81-4.18c-1-.52-1.91-1.07-2.82-1.64q-.84-.52-1.64-1.06l-.51-.34A34.75,34.75,0,0,1,133.9,28.35a42.08,42.08,0,0,0,11.67-10.14"/><path class="cls-1" d="M135.61,8c-1.24,2.63.62,5.68.62,5.68s3.87-1.21,5.12-3.84-.62-5.68-.62-5.68S136.85,5.4,135.61,8"/><path class="cls-1" d="M132.84,73.44a9.71,9.71,0,0,0-5.67,3.28,11,11,0,0,0,6.61,1.73,9.71,9.71,0,0,0,5.67-3.28,11,11,0,0,0-6.61-1.73"/><path class="cls-1" d="M202.53,42.15s-.66,3.37,1.49,5.57,6.29,2.4,6.29,2.4.66-3.37-1.49-5.57-6.29-2.4-6.29-2.4"/><path class="cls-1" d="M41.64,238.48c-6.25,0-12.71-4.18-12.71-12,0-8,6.72-12.06,12.49-12.06a14.09,14.09,0,0,1,7.48,1.85l-.65,3.12a12.17,12.17,0,0,0-6.43-1.85c-4.54,0-9.33,3-9.33,9s4.65,8.94,9.37,8.94a8.62,8.62,0,0,0,4.9-1.2v-5.12H41.42v-2.83H50.1V236c-2.22,1.78-5,2.51-8.46,2.51"/><path class="cls-1" d="M73.56,238l-2.51-6H62l-2.51,6H56.09L66,214.55h1.27L77.12,238Zm-6-14.46a28.27,28.27,0,0,1-1-2.83h-.07a21.35,21.35,0,0,1-1,2.83l-2.29,5.67h6.61Z"/><path class="cls-1" d="M96.91,238l-7.3-10.17H87V238H83.47V214.87h7c3.27,0,7,2.11,7,6.5a6.18,6.18,0,0,1-4.07,6L101.27,238Zm-7.08-20.12H87v7h2.87c2.07,0,4-1.09,4-3.52s-1.92-3.52-4-3.52"/><path class="cls-1" d="M112.82,238H105.7V214.87h7.12c6.46,0,12.53,4.1,12.53,11.59S119.28,238,112.82,238m-.62-20.16h-2.94V235.1h2.94c5.23,0,9.55-2.72,9.55-8.61s-4.32-8.61-9.55-8.61"/><polygon class="cls-1" points="132.43 238.04 132.43 214.87 144.92 214.87 144.92 217.89 135.95 217.89 135.95 224.9 143.47 224.9 143.47 227.91 135.95 227.91 135.95 235.03 146.19 235.03 146.19 238.04 132.43 238.04"/><path class="cls-1" d="M171.73,238.55l-10.86-11.88c-1.74-1.89-3.74-4.21-5.34-6.1l-.07,0c.07,2.11.07,4.07.07,5.81V238H152V214.87h2.43l10,10.9c1.34,1.49,3.45,3.81,4.87,5.56l.07,0c-.07-1.78-.07-3.78-.07-5.45v-11h3.52v23.68Z"/><path class="cls-1" d="M198,238.23a11.3,11.3,0,0,1-5.88-1.53l-.4-3.67a10.94,10.94,0,0,0,6.46,2.14c2.51,0,4.18-1.38,4.18-3.45s-1.2-3.27-3.92-4.14c-4.07-1.31-6.21-3.38-6.21-6.72s2.36-6.21,7.23-6.21a9.12,9.12,0,0,1,5,1.31l-.69,2.94a8.42,8.42,0,0,0-4.43-1.34c-2.29,0-3.7,1.42-3.7,3.05s1.23,2.69,3.63,3.49c4,1.34,6.65,3.2,6.65,7.3s-2.72,6.83-7.88,6.83"/><path class="cls-1" d="M222.39,238.48c-5.41,0-9.44-3.2-9.44-8.61v-15h3.52v14.64c0,3.45,1.92,5.85,6,5.85s6-2.4,6-5.85V214.87h3.41v15c0,5.41-4,8.61-9.44,8.61"/><rect class="cls-1" x="240.18" y="214.87" width="3.52" height="23.17"/><polygon class="cls-1" points="260.85 217.89 260.85 238.04 257.32 238.04 257.32 217.89 249.88 217.89 249.88 214.87 268.29 214.87 268.29 217.89 260.85 217.89"/><polygon class="cls-1" points="274.1 238.04 274.1 214.87 286.6 214.87 286.6 217.89 277.63 217.89 277.63 224.9 285.14 224.9 285.14 227.91 277.63 227.91 277.63 235.03 287.87 235.03 287.87 238.04 274.1 238.04"/></g></g></svg>